# xmcd CD database file
#
# Track frame offsets:
#	150
#	34445
#	89515
#	146596
#	166405
#	198610
#	252413
#	262340
#
# Disc length: 3751 seconds
#
# Revision: 2
# Processed by: cddbd v1.5.2PL0 Copyright (c) Steve Scherf et al.
# Submitted via: CDex 2.16
#
DISCID=7e0ea508
DTITLE=Hans Zimmer - Live In Prague [CD 1)
DYEAR=2017
DGENRE=Soundtrack
TTITLE0=Opening Medley: Driving/Discombobulate/Zoosters Breakout
TTITLE1=Crimson Tide/160 BPM
TTITLE2=Gladiator: The Wheat/The Battle/Elysium/Now We Are Free
TTITLE3=Chevaliers de Sangreal
TTITLE4=The Lion King: Circle Of Live [prelude]/King Of Pride Rock [reprise]
TTITLE5=Pirates Of The Caribbean: Captain Jack Sparrow/One Day/Up Is Down/He's A Pirate
TTITLE6=You're So Cool
TTITLE7=Main Theme [Rain Man]
EXTD=YEAR: 2017
EXTT0=
EXTT1=
EXTT2=
EXTT3=
EXTT4=
EXTT5=
EXTT6=
EXTT7=
PLAYORDER=
